<svg xmlns="http://www.w3.org/2000/svg" xmlns:xlink="http://www.w3.org/1999/xlink" width="559" zoomAndPan="magnify" viewBox="0 0 419.25 297.75" height="396" preserveAspectRatio="xMidYMid meet" version="1.0"><defs><g/><clipPath id="b644e86907"><path d="M 270 15 L 418.5 15 L 418.5 96 L 270 96 Z M 270 15 " clip-rule="nonzero"/></clipPath><clipPath id="79aae78932"><path d="M 260.199219 55.191406 L 418.492188 15.449219 L 428.703125 56.113281 L 270.40625 95.855469 Z M 260.199219 55.191406 " clip-rule="nonzero"/></clipPath><clipPath id="42a18bb4e3"><path d="M 260.199219 55.191406 L 418.492188 15.449219 L 428.703125 56.113281 L 270.40625 95.855469 Z M 260.199219 55.191406 " clip-rule="nonzero"/></clipPath></defs><g fill="#ffffff" fill-opacity="1"><g transform="translate(-7.12369, 203.937998)"><g><path d="M 157.796875 0 L 113.078125 0 L 142.609375 -81.21875 C 143.453125 -83.75 143.34375 -85.859375 142.28125 -87.546875 C 141.226562 -89.234375 139.4375 -90.078125 136.90625 -90.078125 L 90.921875 -90.078125 L 58.21875 0 L 13.296875 0 L 68.5625 -152.09375 L 113.5 -152.09375 L 98.09375 -110.125 L 112.65625 -118.765625 L 172.140625 -118.765625 C 181.421875 -118.765625 187.640625 -116.300781 190.796875 -111.375 C 193.960938 -106.457031 193.859375 -99.359375 190.484375 -90.078125 Z M 157.796875 0 "/></g></g></g><g fill="#ffffff" fill-opacity="1"><g transform="translate(151.090662, 203.937998)"><g><path d="M 59.28125 -118.765625 L 104.203125 -118.765625 L 61.171875 0 L 16.25 0 Z M 75.734375 -163.90625 L 120.671875 -163.90625 L 108.640625 -130.578125 L 63.703125 -130.578125 Z M 75.734375 -163.90625 "/></g></g></g><g clip-path="url(#b644e86907)"><g clip-path="url(#79aae78932)"><g clip-path="url(#42a18bb4e3)"><path fill="#92ff50" d="M 401.542969 63.199219 L 270.519531 96.09375 L 287.589844 48.3125 L 418.609375 15.421875 Z M 401.542969 63.199219 " fill-opacity="1" fill-rule="nonzero"/></g></g></g><g fill="#ffffff" fill-opacity="1"><g transform="translate(-2.895525, 249.378048)"><g><path d="M 17.265625 -7.546875 C 17.097656 -7.046875 17.132812 -6.625 17.375 -6.28125 C 17.613281 -5.9375 17.960938 -5.765625 18.421875 -5.765625 L 25.125 -5.765625 L 23.046875 0 L 14.125 0 C 13.820312 0 13.519531 -0.0390625 13.21875 -0.125 C 12.925781 -0.207031 12.679688 -0.347656 12.484375 -0.546875 L 8.53125 -4.328125 C 7.820312 -5.035156 7.664062 -5.925781 8.0625 -7 L 12.09375 -18.125 L 9.421875 -20.25 L 10.734375 -23.890625 L 14.171875 -23.890625 L 16 -28.8125 L 25.03125 -28.8125 L 23.21875 -23.890625 L 31.703125 -23.890625 L 29.625 -18.125 L 21.140625 -18.125 Z M 17.265625 -7.546875 "/></g></g></g><g fill="#ffffff" fill-opacity="1"><g transform="translate(21.077005, 249.378048)"><g><path d="M 5.6875 -4.328125 C 4.976562 -5.035156 4.820312 -5.925781 5.21875 -7 L 8.828125 -16.9375 C 9.671875 -19.3125 11.101562 -21.0625 13.125 -22.1875 C 15.15625 -23.320312 17.539062 -23.890625 20.28125 -23.890625 L 30.390625 -23.890625 C 33.160156 -23.890625 35.144531 -23.320312 36.34375 -22.1875 C 37.550781 -21.0625 37.726562 -19.3125 36.875 -16.9375 L 35.859375 -14.125 C 35.460938 -13 34.65625 -12.109375 33.4375 -11.453125 L 28.3125 -8.875 C 28 -8.675781 27.65625 -8.523438 27.28125 -8.421875 C 26.914062 -8.328125 26.578125 -8.28125 26.265625 -8.28125 L 17.78125 -8.28125 L 15.921875 -11.578125 L 14.421875 -7.546875 C 14.253906 -7.046875 14.285156 -6.625 14.515625 -6.28125 C 14.742188 -5.9375 15.097656 -5.765625 15.578125 -5.765625 L 31.75 -5.765625 L 29.65625 0 L 11.28125 0 C 10.976562 0 10.675781 -0.0390625 10.375 -0.125 C 10.082031 -0.207031 9.835938 -0.347656 9.640625 -0.546875 Z M 17.65625 -16.34375 L 16.8125 -14 L 25.59375 -14 C 26.101562 -14 26.597656 -14.179688 27.078125 -14.546875 C 27.554688 -14.921875 27.894531 -15.363281 28.09375 -15.875 L 28.265625 -16.34375 C 28.429688 -16.851562 28.398438 -17.273438 28.171875 -17.609375 C 27.953125 -17.953125 27.585938 -18.125 27.078125 -18.125 L 20.109375 -18.125 C 19.597656 -18.125 19.101562 -17.953125 18.625 -17.609375 C 18.144531 -17.273438 17.820312 -16.851562 17.65625 -16.34375 Z M 17.65625 -16.34375 "/></g></g></g><g fill="#ffffff" fill-opacity="1"><g transform="translate(52.729339, 249.378048)"><g><path d="M 15.921875 -23.890625 L 37.171875 -23.890625 L 35.09375 -18.125 L 20.28125 -18.125 C 19.832031 -18.125 19.359375 -17.953125 18.859375 -17.609375 C 18.367188 -17.273438 18.035156 -16.851562 17.859375 -16.34375 L 14.640625 -7.546875 C 14.472656 -7.046875 14.507812 -6.625 14.75 -6.28125 C 14.988281 -5.9375 15.332031 -5.765625 15.78125 -5.765625 L 30.59375 -5.765625 L 28.515625 0 L 11.28125 0 C 10.976562 0 10.675781 -0.0390625 10.375 -0.125 C 10.082031 -0.207031 9.835938 -0.347656 9.640625 -0.546875 L 5.6875 -4.328125 C 4.976562 -5.035156 4.820312 -5.925781 5.21875 -7 L 9.671875 -19.3125 C 9.984375 -20.15625 10.472656 -20.921875 11.140625 -21.609375 C 11.804688 -22.304688 12.5625 -22.859375 13.40625 -23.265625 C 14.257812 -23.679688 15.097656 -23.890625 15.921875 -23.890625 Z M 15.921875 -23.890625 "/></g></g></g><g fill="#ffffff" fill-opacity="1"><g transform="translate(82.472334, 249.378048)"><g><path d="M 31.75 0 L 22.75 0 L 28.6875 -16.34375 C 28.851562 -16.851562 28.832031 -17.273438 28.625 -17.609375 C 28.414062 -17.953125 28.054688 -18.125 27.546875 -18.125 L 18.296875 -18.125 L 11.71875 0 L 2.671875 0 L 13.796875 -30.59375 L 22.828125 -30.59375 L 19.734375 -22.15625 L 22.65625 -23.890625 L 34.625 -23.890625 C 36.5 -23.890625 37.753906 -23.394531 38.390625 -22.40625 C 39.023438 -21.414062 39.003906 -19.988281 38.328125 -18.125 Z M 31.75 0 "/></g></g></g><g fill="#ffffff" fill-opacity="1"><g transform="translate(115.737002, 249.378048)"><g><path d="M 36.53125 -23.890625 C 37.8125 -23.890625 38.734375 -23.441406 39.296875 -22.546875 C 39.859375 -21.660156 39.898438 -20.582031 39.421875 -19.3125 L 32.421875 0 L 23.46875 0 L 29.40625 -16.34375 C 29.570312 -16.851562 29.535156 -17.273438 29.296875 -17.609375 C 29.054688 -17.953125 28.695312 -18.125 28.21875 -18.125 L 18.296875 -18.125 L 11.71875 0 L 2.671875 0 L 11.328125 -23.890625 L 20.375 -23.890625 L 19.1875 -20.625 L 24.65625 -23.890625 Z M 36.53125 -23.890625 "/></g></g></g><g fill="#ffffff" fill-opacity="1"><g transform="translate(149.68055, 249.378048)"><g><path d="M 5.6875 -4.328125 C 4.976562 -5.035156 4.820312 -5.925781 5.21875 -7 L 8.828125 -16.9375 C 9.671875 -19.3125 11.101562 -21.0625 13.125 -22.1875 C 15.15625 -23.320312 17.539062 -23.890625 20.28125 -23.890625 L 30.390625 -23.890625 C 33.160156 -23.890625 35.144531 -23.320312 36.34375 -22.1875 C 37.550781 -21.0625 37.726562 -19.3125 36.875 -16.9375 L 35.859375 -14.125 C 35.460938 -13 34.65625 -12.109375 33.4375 -11.453125 L 28.3125 -8.875 C 28 -8.675781 27.65625 -8.523438 27.28125 -8.421875 C 26.914062 -8.328125 26.578125 -8.28125 26.265625 -8.28125 L 17.78125 -8.28125 L 15.921875 -11.578125 L 14.421875 -7.546875 C 14.253906 -7.046875 14.285156 -6.625 14.515625 -6.28125 C 14.742188 -5.9375 15.097656 -5.765625 15.578125 -5.765625 L 31.75 -5.765625 L 29.65625 0 L 11.28125 0 C 10.976562 0 10.675781 -0.0390625 10.375 -0.125 C 10.082031 -0.207031 9.835938 -0.347656 9.640625 -0.546875 Z M 17.65625 -16.34375 L 16.8125 -14 L 25.59375 -14 C 26.101562 -14 26.597656 -14.179688 27.078125 -14.546875 C 27.554688 -14.921875 27.894531 -15.363281 28.09375 -15.875 L 28.265625 -16.34375 C 28.429688 -16.851562 28.398438 -17.273438 28.171875 -17.609375 C 27.953125 -17.953125 27.585938 -18.125 27.078125 -18.125 L 20.109375 -18.125 C 19.597656 -18.125 19.101562 -17.953125 18.625 -17.609375 C 18.144531 -17.273438 17.820312 -16.851562 17.65625 -16.34375 Z M 17.65625 -16.34375 "/></g></g></g><g fill="#ffffff" fill-opacity="1"><g transform="translate(181.332885, 249.378048)"><g><path d="M 17.265625 -7.546875 C 17.097656 -7.046875 17.132812 -6.625 17.375 -6.28125 C 17.613281 -5.9375 17.960938 -5.765625 18.421875 -5.765625 L 25.125 -5.765625 L 23.046875 0 L 14.125 0 C 13.820312 0 13.519531 -0.0390625 13.21875 -0.125 C 12.925781 -0.207031 12.679688 -0.347656 12.484375 -0.546875 L 8.53125 -4.328125 C 7.820312 -5.035156 7.664062 -5.925781 8.0625 -7 L 12.09375 -18.125 L 9.421875 -20.25 L 10.734375 -23.890625 L 14.171875 -23.890625 L 16 -28.8125 L 25.03125 -28.8125 L 23.21875 -23.890625 L 31.703125 -23.890625 L 29.625 -18.125 L 21.140625 -18.125 Z M 17.265625 -7.546875 "/></g></g></g><g fill="#92ff50" fill-opacity="1"><g transform="translate(418.661667, 121.24139)"><g><path d="M -85.828125 128.859375 L -200.515625 128.859375 L -189.296875 97.734375 L -109.40625 97.734375 C -106.96875 97.734375 -104.410156 96.816406 -101.734375 94.984375 C -99.066406 93.160156 -97.273438 90.875 -96.359375 88.125 L -78.96875 40.75 C -78.050781 38 -78.238281 35.707031 -79.53125 33.875 C -80.832031 32.039062 -82.703125 31.125 -85.140625 31.125 L -165.03125 31.125 L -153.8125 0 L -60.890625 0 C -59.203125 0 -57.554688 0.226562 -55.953125 0.6875 C -54.359375 1.144531 -53.023438 1.90625 -51.953125 2.96875 L -30.671875 23.34375 C -26.859375 27.15625 -26.019531 31.960938 -28.15625 37.765625 L -52.1875 104.140625 C -53.863281 108.722656 -56.492188 112.882812 -60.078125 116.625 C -63.671875 120.363281 -67.753906 123.335938 -72.328125 125.546875 C -76.910156 127.753906 -81.410156 128.859375 -85.828125 128.859375 Z M -85.828125 128.859375 "/></g></g></g></svg>